<svg xmlns="http://www.w3.org/2000/svg" xmlns:xlink="http://www.w3.org/1999/xlink" aria-label="Melbourne" focusable="false" role="presentation" tabindex="-1" viewBox="0 0 193.57 130.813"><path fill="#231f20" d="M80.3169,75.4873a1.5,1.5,0,0,0-1.5-1.5H33.896a1.5,1.5,0,0,0-1.5,1.5l.001.01v8.24a1.5,1.5,0,0,0,1.5,1.5h7.33a1.5,1.5,0,0,0,1.5-1.5v-6.75h2.2v6.75a1.5,1.5,0,0,0,1.5,1.5h7.33a1.5,1.5,0,0,0,1.5-1.5v-6.75h2.2v6.75a1.5,1.5,0,0,0,1.5,1.5h7.33a1.5,1.5,0,0,0,1.5-1.5v-6.75h2.2v6.75a1.5,1.5,0,0,0,1.5,1.5h7.33a1.5,1.5,0,0,0,1.5-1.5Zm-40.59,6.75h-4.33v-5.25h4.33Zm12.53,0h-4.33v-5.25h4.33Zm12.53,0h-4.33v-5.25h4.33Zm12.53,0h-4.33v-5.25h4.33Z" role="presentation"/><path fill="#231f20" d="M192.07,72.1318H172.8865a1.4837,1.4837,0,0,0,.049-.7939,9.6575,9.6575,0,0,0-.4277-1.4619,13.0359,13.0359,0,0,0-1.1357-2.336,17.2675,17.2675,0,0,0-7.6953-6.3852,1.4956,1.4956,0,0,0-.6123-.1309H162.67V54.082a1.5,1.5,0,1,0-3,0v6.9419h-.3935a1.4987,1.4987,0,0,0-.6114.13,17.5323,17.5323,0,0,0-7.6884,6.3818,12.3858,12.3858,0,0,0-1.1416,2.3448,11.5748,11.5748,0,0,0-.4258,1.455,1.4861,1.4861,0,0,0,.0486.7959H111.18V55.18a1.4854,1.4854,0,0,0-.3463-.9478,1.49,1.49,0,0,0-.0189-.6338,10.9244,10.9244,0,0,0-.48-1.4619,12.5727,12.5727,0,0,0-1.2686-2.3471,18.8026,18.8026,0,0,0-8.5019-6.3467,1.5052,1.5052,0,0,0-.56-.1079h-.6016V36.3931a1.5,1.5,0,0,0-3,0V43.335H95.8a1.5012,1.5012,0,0,0-.5625.1093,18.86,18.86,0,0,0-8.4849,6.3365,11.7417,11.7417,0,0,0-1.2744,2.3569,10.6041,10.6041,0,0,0-.38,1.1149l-1.7533-.589c.0039-.044.0132-.0864.0132-.1314V40.6182c0-.0456-.02-.0849-.0238-.1294a1.4855,1.4855,0,0,0-.0525-.2863c-.0112-.0381-.0077-.0817-.0218-.1185a21.0156,21.0156,0,0,0-.9434-2.8345,26.2111,26.2111,0,0,0-2.64-4.8857C74.8878,25.4042,67.4105,21.28,61.8691,19.02V12.0972a1.5,1.5,0,0,0-.5805-1.1851l-3.4546-2.68V1.5a1.5,1.5,0,0,0-3,0V8.2493l-3.46,2.6838a1.5,1.5,0,0,0-.5806,1.1851v6.8982c-4.6054,1.8826-12.7662,6.0363-17.7934,13.3425A24.7869,24.7869,0,0,0,30.356,37.25a21.8881,21.8881,0,0,0-.9869,3.0142c-.0023.01.0006.0194-.0016.0293a1.4968,1.4968,0,0,0-.0374.3247c0,.0408.0088.0791.012.1191.0019.0241-.0073.0494-.0042.0732V52.24l-3.2334,1.0333a10.6451,10.6451,0,0,0-.3857-1.1356A12.5291,12.5291,0,0,0,24.45,49.79a18.7881,18.7881,0,0,0-8.501-6.3466,1.4968,1.4968,0,0,0-.5595-.1084h-.5953V36.3931a1.5,1.5,0,0,0-3,0V43.335h-.621a1.5012,1.5012,0,0,0-.5625.1093,18.8592,18.8592,0,0,0-8.4849,6.3365A11.8107,11.8107,0,0,0,.8472,52.144a10.541,10.541,0,0,0-.479,1.4693,1.4893,1.4893,0,0,0-.0163.6192,1.4858,1.4858,0,0,0-.346.9477v7.63C.0051,62.83,0,62.8483,0,62.8682s.0051.0384.0059.0581v7.6313l.0009.01V108.232c-.001.0229-.0068.0446-.0068.0678v21a1.5,1.5,0,0,0,1.5,1.5H109.554c.0421.0035.0826.0127.1257.0127H192.07a1.5,1.5,0,0,0,1.5-1.5V73.6318A1.5,1.5,0,0,0,192.07,72.1318Zm-1.5,3V111.36h-2.5781V94.5176a6.5526,6.5526,0,0,0-1.7979-4.5391,6.0647,6.0647,0,0,0-4.4228-1.9219,6.3509,6.3509,0,0,0-6.2207,6.46V111.36H172.97V75.1318Zm-5.5781,19.3858V111.36h-6.4414V94.5166a3.35,3.35,0,0,1,3.2207-3.46,3.0893,3.0893,0,0,1,2.249.9893A3.5641,3.5641,0,0,1,184.9922,94.5176ZM165.5957,89.98a6.1428,6.1428,0,0,0-4.4248-1.9229,6.35,6.35,0,0,0-6.22,6.46V111.36H152.377V75.1318h17.5908V111.36h-2.5762V94.5234A6.5674,6.5674,0,0,0,165.5957,89.98Zm-1.2041,4.5381V111.36h-6.44V94.5166a3.35,3.35,0,0,1,3.22-3.46,3.0848,3.0848,0,0,1,2.2451.9844A3.5723,3.5723,0,0,1,164.3916,94.5176ZM144.9951,89.98a6.06,6.06,0,0,0-4.4228-1.9229,6.3513,6.3513,0,0,0-6.2227,6.46V111.36H131.78V75.1318h17.59V111.36H146.793V94.5225A6.57,6.57,0,0,0,144.9951,89.98Zm-1.2021,4.5381V111.36H137.35V94.5166a3.351,3.351,0,0,1,3.2227-3.46,3.0859,3.0859,0,0,1,2.2441.9844A3.5778,3.5778,0,0,1,143.793,94.5176Zm-20.5909,33.2949H116.76v-5.4648a3.351,3.351,0,0,1,3.2226-3.46,3.0861,3.0861,0,0,1,2.2442.9844,3.5806,3.5806,0,0,1,.9755,2.4765Zm1.2032-10.002a6.06,6.06,0,0,0-4.4229-1.9228,6.3513,6.3513,0,0,0-6.2226,6.46v5.4648H111.2V114.36h17.58v13.4521h-2.5782v-5.459A6.5689,6.5689,0,0,0,124.4053,117.8105ZM102.7061,127.8H93.103v-6.417a4.9747,4.9747,0,0,1,4.8-5.1221,4.6273,4.6273,0,0,1,3.3662,1.4776,5.2567,5.2567,0,0,1,1.4366,3.6445Zm.7373-12.1289a7.6012,7.6012,0,0,0-5.54-2.41,7.9751,7.9751,0,0,0-7.8,8.1221V127.8H87.63v-18h20.55v18h-2.4736v-6.417A8.2487,8.2487,0,0,0,103.4434,115.6709ZM35.397,111.47h41.92V127.8H35.397ZM54.459,94.3906a26.1219,26.1219,0,0,1,4.7192.1226V108.47H52.7939V94.5577C53.3429,94.4862,53.897,94.4272,54.459,94.3906ZM72.34,100.2031a14.3825,14.3825,0,0,1,4.8179,8.2666H71.562v-8.929C71.8272,99.7562,72.0883,99.9756,72.34,100.2031ZM68.562,108.47H62.1782v-13.43a24.5376,24.5376,0,0,1,6.3838,2.4641Zm-18.7681,0H43.4V97.8029a23.4,23.4,0,0,1,6.394-2.6611Zm-9.394,0H35.5386A14.5771,14.5771,0,0,1,40.4,100.0269Zm39.9136,1.4662c0-.0077.0017-.0151.0014-.0228A16.85,16.85,0,0,0,74.35,97.9756a27.7463,27.7463,0,0,0-20.0859-6.5791,28.4628,28.4628,0,0,0-2.9726.3694,1.4839,1.4839,0,0,0-.4954.0909c-10.3267,1.9619-18.1611,9.41-18.3987,18.0719,0,.0071.0016.0139.0015.021l-.002.02V127.8H26.56V108.3289c0-.01.0029-.0191.0029-.0291V64.3682H47.8783A7.8595,7.8595,0,0,0,63.3175,64.33a1.5,1.5,0,0,0,.3285.0386H84.627V108.3c0,.01.0027.0192.0029.0291V127.8h-4.313V109.97C80.3169,109.9581,80.3137,109.9474,80.3135,109.9359ZM8.3281,106.8V84.2305A4.9752,4.9752,0,0,1,13.13,79.1084a4.6229,4.6229,0,0,1,3.3662,1.4775,5.2553,5.2553,0,0,1,1.4351,3.6446V106.8ZM18.6694,78.5176A7.5974,7.5974,0,0,0,13.13,76.1084a7.9759,7.9759,0,0,0-7.8018,8.1221V106.8H3.0068V70.5566l-.0009-.01V64.3682H23.563V106.8H20.9312V84.2305A8.2432,8.2432,0,0,0,18.6694,78.5176ZM23.563,56.68v4.688H3.0059V56.68Zm32.7812-9.9214,28.2828,9.5v5.1093H63.646a1.4994,1.4994,0,0,0-.3284.0385,7.86,7.86,0,0,0-15.4393-.0385H26.563V56.2755ZM108.18,56.68v4.688H87.627V56.68ZM93.103,106.8V84.2305a4.9746,4.9746,0,0,1,4.8-5.1221,4.6212,4.6212,0,0,1,3.3613,1.4717,5.2773,5.2773,0,0,1,1.4405,3.65V106.8Zm10.3394-28.2822a7.598,7.598,0,0,0-5.5391-2.4092,7.9751,7.9751,0,0,0-7.8,8.1221V106.8H87.627V64.3682H108.18V106.8h-2.4746V84.2344A8.2665,8.2665,0,0,0,103.4424,78.5176ZM60.459,62.8682a4.864,4.864,0,1,1-4.8638-4.8643A4.8691,4.8691,0,0,1,60.459,62.8682ZM116.76,111.36V94.5166a3.351,3.351,0,0,1,3.2226-3.46,3.0861,3.0861,0,0,1,2.2442.9844,3.5808,3.5808,0,0,1,.9755,2.4766V111.36Zm45.9775-47.3365a14.399,14.399,0,0,1,6.082,5.0913,10.1311,10.1311,0,0,1,.8809,1.8184,6.8978,6.8978,0,0,1,.3037,1.041,1.4215,1.4215,0,0,0,.0641.1572h-7.483a1.4829,1.4829,0,0,0,.0849-.4775v-7.63ZM152.6572,70.9a9.3142,9.3142,0,0,1,.8692-1.7822,14.3376,14.3376,0,0,1,6.0761-5.0943h.0674v7.63a1.4829,1.4829,0,0,0,.085.4775H152.29a1.4806,1.4806,0,0,0,.05-.1552A8.2446,8.2446,0,0,1,152.6572,70.9ZM128.78,75.1318V111.36h-2.5782V94.5225a6.5687,6.5687,0,0,0-1.7968-4.543,6.06,6.06,0,0,0-4.4229-1.9229,6.3513,6.3513,0,0,0-6.2226,6.46V111.36H111.2V108.3a1.4845,1.4845,0,0,0-.02-.2035V75.1318ZM99.709,46.335a15.9625,15.9625,0,0,1,6.8857,5.1543,9.596,9.596,0,0,1,.9639,1.7832c.0533.1312.0869.2724.1337.4077h-8.289V46.335ZM89.2178,51.49a15.6434,15.6434,0,0,1,6.8789-5.1552h.3066V53.68H88.1214c.0487-.14.0774-.27.1374-.417A8.8,8.8,0,0,1,89.2178,51.49ZM77.2017,34.0586a23.2164,23.2164,0,0,1,2.3364,4.3223c.1035.2536.1847.4929.274.7373H71.741a22.2391,22.2391,0,0,0-1.908-7.6314,27.6971,27.6971,0,0,0-5.5283-8.0586C68.4976,25.5586,73.7192,28.9985,77.2017,34.0586ZM67.0923,32.7061a19.2835,19.2835,0,0,1,1.6261,6.4121h-10.28l-.5513-17.31A28.14,28.14,0,0,1,67.0923,32.7061ZM54.8213,21.792h.0635l.5526,17.3262h-11.24a19.064,19.064,0,0,1,1.069-5.0982C47.2344,28.4771,51.4673,24.3525,54.8213,21.792Zm1.5238-10.9182,2.524,1.9582v5.96H53.7939V12.853ZM33.1387,38.3721a21.7893,21.7893,0,0,1,2.33-4.3081c3.5688-5.1866,8.9477-8.668,13.1806-10.7847a27.5643,27.5643,0,0,0-6.209,9.7339,22.038,22.038,0,0,0-1.2417,6.105h-8.337C32.9517,38.87,33.0361,38.6246,33.1387,38.3721Zm-.8008,3.7461H42.6385c.0077,0,.0149.002.0226.0019l.0176-.0019H56.33a1.4775,1.4775,0,0,0,.3281-.0362l.0032,0a1.4138,1.4138,0,0,0,.2936.0323c.0109,0,.0209.0035.0318.0035h.03c.0059,0,.0113.0012.0172.0009l.0073-.0009H70.2494c.0165,0,.0318.0048.0485.0048s.0319-.0043.0484-.0048H80.3579V51.66l-23.5244-7.902a1.5,1.5,0,0,0-.9341-.0068L32.3379,51.2808ZM15.0938,46.335A15.9581,15.9581,0,0,1,21.978,51.49a9.5593,9.5593,0,0,1,.9654,1.7862c.0538.1309.086.27.1325.4043h-8.282V46.335ZM4.5908,51.49A15.644,15.644,0,0,1,11.47,46.335h.3242V53.68h-8.3c.0485-.1406.0769-.2683.1364-.4156A8.8521,8.8521,0,0,1,4.5908,51.49ZM3,109.8H23.56v18H20.9312v-6.417a8.2443,8.2443,0,0,0-2.2613-5.7119,7.5986,7.5986,0,0,0-5.54-2.41,7.9759,7.9759,0,0,0-7.8018,8.1221V127.8H3Zm14.9312,18H8.3281v-6.417a4.9753,4.9753,0,0,1,4.8018-5.1221,4.623,4.623,0,0,1,3.3662,1.4786,5.2545,5.2545,0,0,1,1.4351,3.6435ZM131.78,114.36h17.59v13.4521H146.793v-5.459a6.57,6.57,0,0,0-1.7979-4.543,6.06,6.06,0,0,0-4.4228-1.9228,6.3513,6.3513,0,0,0-6.2227,6.46v5.4648H131.78Zm12.0127,13.4521H137.35v-5.4648a3.351,3.351,0,0,1,3.2227-3.46,3.0859,3.0859,0,0,1,2.2441.9844,3.5775,3.5775,0,0,1,.9766,2.4765Zm20.5976,0h-6.44v-5.4648a3.35,3.35,0,0,1,3.22-3.46,3.0848,3.0848,0,0,1,2.2451.9844,3.5716,3.5716,0,0,1,.9756,2.4765Zm3,0v-5.458a6.5675,6.5675,0,0,0-1.7959-4.544,6.1431,6.1431,0,0,0-4.4248-1.9228,6.35,6.35,0,0,0-6.22,6.46v5.4648H152.377V114.36h17.5908v13.4521Zm17.6006,0H178.55v-5.4648a3.35,3.35,0,0,1,3.22-3.46,3.0913,3.0913,0,0,1,2.25.9893,3.5638,3.5638,0,0,1,.9717,2.4716Zm3,0v-5.4639a6.5529,6.5529,0,0,0-1.7978-4.539,6.0665,6.0665,0,0,0-4.4239-1.9219,6.35,6.35,0,0,0-6.22,6.46v5.4648h-2.58V114.36H190.57v13.4521Z" role="presentation"/></svg>