<svg xmlns="http://www.w3.org/2000/svg" viewBox="0 0 206.5 130.8851" aria-label="Canberra" role="presentation" svg-inline="" focusable="false" tabindex="-1" data-v-fab07288="" data-v-58028079="" xmlns:xlink="http://www.w3.org/1999/xlink"><path role="presentation" fill="#231f20" d="M205.043,82.5293,140.06,80.6806,115.38,61.4472V38.7749a1.5,1.5,0,0,0-3,0V62.18a1.4987,1.4987,0,0,0,.5781,1.1832l22.0361,17.1731-4.7288-.1345L110.1,64.6919V32.3882a1.5,1.5,0,0,0-3,0v5.27h-2.3691V4a1.5,1.5,0,0,0-.3477-.96c-3.5947-4.3154-9.7783-4.0576-16.1377.6724-4.4639,3.3222-9.9883-.0132-10.2187-.1553A1.5,1.5,0,0,0,75.7329,4.83V16.2558a1.5,1.5,0,0,0,.7061,1.2725c.3022.189,7.48,4.5693,13.5966.0181,3.733-2.7784,8.689-4.57,11.6949-1.542V37.6582H99.8v-5.27a1.5,1.5,0,0,0-3,0V59.3623c-.001.023-.0068.0446-.0068.0678s.0058.0449.0068.0679v5.1929L76.8505,80.2325q-2.337.04-4.6879.086L93.9268,63.3642a1.5,1.5,0,0,0,.5781-1.1831V38.7749a1.5,1.5,0,0,0-3,0V61.4482L67.1479,80.4215c-32.9505.7128-65.3271,2.0913-65.7124,2.1078A1.5,1.5,0,0,0,0,84.0283v45.2744a1.5,1.5,0,0,0,1.5,1.5H8.5551a1.3674,1.3674,0,0,0,.71,0H26.477a1.3674,1.3674,0,0,0,.71,0H44.03a1.3467,1.3467,0,0,0,.7793,0H62.1127a1.3674,1.3674,0,0,0,.71,0H78.9682a1.3674,1.3674,0,0,0,.71,0h16.49a1.3674,1.3674,0,0,0,.71,0h15.7974a1.3662,1.3662,0,0,0,.71,0h16.16a1.3662,1.3662,0,0,0,.71,0h16.9408a1.4285,1.4285,0,0,0,.6469,0h17.3021a1.3662,1.3662,0,0,0,.71,0h17.89a1.3659,1.3659,0,0,0,.71,0H205a1.5,1.5,0,0,0,1.5-1.5V84.0283A1.4991,1.4991,0,0,0,205.043,82.5293ZM88.2446,15.1391c-3.58,2.666-7.8476,1.0435-9.5117.2251V7.2C81.4014,8.2173,85.9546,9.1548,90.0356,6.12c3.7349-2.7778,8.69-4.5688,11.6949-1.542v7.74C98.1211,10.4677,93.2363,11.4248,88.2446,15.1391ZM107.1,40.6582V57.93h-2.3691V40.6582Zm-5.3691,0V57.93H99.8V40.6582ZM99.2217,66.6074A1.5,1.5,0,0,0,99.8,65.4238V60.93h1.9307v4.4917a1.5,1.5,0,1,0,3,0V60.93H107.1v4.4947a1.4988,1.4988,0,0,0,.5781,1.1836l17.52,13.6493-5.525-.1571a1.3525,1.3525,0,0,0-1.0889.4238A1.5,1.5,0,0,0,118.13,81.6v4.8476h-7.27a1.5,1.5,0,0,0-1.5,1.5v9.7871H97.5532V87.7959a1.5,1.5,0,0,0-1.5-1.5H87.4248V81.6a1.5,1.5,0,0,0-1.5181-1.5q-2.0228.0243-4.073.0541Zm-79.4,61.1953H10.41V91.0908l9.4116-.3848Zm17.9223,0H28.332V90.0908l9.4121-.3848Zm17.5879,0H45.92V89.8056l9.4121-.3789Zm18.0479,0H63.9678V88.96L73.38,88.581Zm16.855,0H80.8232V110.5h9.4117Zm16.8647,0H98.0229V107.13H107.1Zm16.83,0H114.53V110.5H123.93Zm16.87,0H131.4V88.5615L140.8,88.94Zm17.62,0h-9.4V89.7158l9.4.376Zm17.98,0H167v-36.54l9.4.3623Zm18.6,0h-9.4v-35.54l9.4.3623Zm8.5,0H198V91.1816a1.5,1.5,0,0,0-1.4424-1.499l-12.4-.4776a1.4816,1.4816,0,0,0-1.0976.418,1.5,1.5,0,0,0-.46,1.0811v37.0986H179.4V90.1816a1.5,1.5,0,0,0-1.4424-1.499l-12.4-.4776A1.5,1.5,0,0,0,164,89.7041v38.0986h-2.58V88.65a1.5008,1.5008,0,0,0-1.44-1.4991l-12.4-.4961a1.48,1.48,0,0,0-1.0986.417,1.4994,1.4994,0,0,0-.461,1.0821v39.6484H143.8V87.5a1.5006,1.5006,0,0,0-1.4394-1.4991l-12.3995-.5A1.5,1.5,0,0,0,128.4,87v40.8027H126.93V109a1.5,1.5,0,0,0-1.5-1.5H113.03a1.5,1.5,0,0,0-1.5,1.5v18.8027H110.1V105.63a1.5,1.5,0,0,0-1.5-1.5H96.5229a1.5,1.5,0,0,0-1.5,1.5v22.1728h-1.788V109a1.5,1.5,0,0,0-1.5-1.5H79.3232a1.5,1.5,0,0,0-1.5,1.5v18.8027H76.38V87.02a1.5,1.5,0,0,0-1.5606-1.499l-12.4121.5a1.5,1.5,0,0,0-1.4394,1.499v40.2832H58.332V87.8652a1.5015,1.5015,0,0,0-.4609-1.082,1.4792,1.4792,0,0,0-1.1-.417l-12.4121.5a1.5,1.5,0,0,0-1.44,1.499v39.4375H40.7441V88.1435a1.5008,1.5008,0,0,0-1.561-1.499l-12.4121.5068A1.5005,1.5005,0,0,0,25.332,88.65v39.1523h-2.51V89.1435a1.5008,1.5008,0,0,0-1.5611-1.499l-12.4116.5068A1.5,1.5,0,0,0,7.41,89.65v38.1523H3V85.4668c6.6106-.2733,34.9673-1.4088,63.8481-2.0379a1.3973,1.3973,0,0,0,1.2717-.0278c2.9408-.0625,5.8822-.119,8.8051-.1691a1.3152,1.3152,0,0,0,.7769-.0135c2.2575-.0378,4.5024-.0716,6.723-.1v4.6778a1.5,1.5,0,0,0,1.5,1.5h8.6284v9.9384a1.5,1.5,0,0,0,1.5,1.5H110.86a1.5,1.5,0,0,0,1.5-1.5V89.4472h7.27a1.5,1.5,0,0,0,1.5-1.5V83.1425l82.37,2.3438Z" transform="translate(0 0.0248)" data-v-fab07288="" data-v-58028079=""></path></svg>